<svg width="17" height="16" viewBox="0 0 17 16" fill="none" xmlns="http://www.w3.org/2000/svg">
<path d="M12.5 0H4.16667C1.66667 0 0 1.66667 0 4.16667V9.16667C0 11.6667 1.66667 13.3333 4.16667 13.3333V15.1083C4.16667 15.775 4.90833 16.175 5.45833 15.8L9.16667 13.3333H12.5C15 13.3333 16.6667 11.6667 16.6667 9.16667V4.16667C16.6667 1.66667 15 0 12.5 0ZM8.33333 10.1417C7.98333 10.1417 7.70833 9.85834 7.70833 9.51667C7.70833 9.17501 7.98333 8.89167 8.33333 8.89167C8.68333 8.89167 8.95833 9.17501 8.95833 9.51667C8.95833 9.85834 8.68333 10.1417 8.33333 10.1417ZM9.38333 6.68334C9.05833 6.90001 8.95833 7.04168 8.95833 7.27501V7.45001C8.95833 7.79168 8.675 8.07501 8.33333 8.07501C7.99167 8.07501 7.70833 7.79168 7.70833 7.45001V7.27501C7.70833 6.30833 8.41667 5.83333 8.68333 5.65C8.99167 5.44167 9.09167 5.3 9.09167 5.08333C9.09167 4.66667 8.75 4.325 8.33333 4.325C7.91667 4.325 7.575 4.66667 7.575 5.08333C7.575 5.425 7.29167 5.70833 6.95 5.70833C6.60833 5.70833 6.325 5.425 6.325 5.08333C6.325 3.975 7.225 3.075 8.33333 3.075C9.44167 3.075 10.3417 3.975 10.3417 5.08333C10.3417 6.03333 9.64167 6.50834 9.38333 6.68334Z" fill="#929EAE"/>
</svg>
